<?xml version="1.0" encoding="UTF-8" standalone="no"?>
<svg width="48px" height="42px" viewBox="0 0 48 42" version="1.1" xmlns="http://www.w3.org/2000/svg" xmlns:xlink="http://www.w3.org/1999/xlink">
    <!-- Generator: Sketch 3.8.3 (29802) - http://www.bohemiancoding.com/sketch -->
    <title>Fill 395</title>
    <desc>Created with Sketch.</desc>
    <defs></defs>
    <g id="Page-1" stroke="none" stroke-width="1" fill="none" fill-rule="evenodd">
        <g id="Fill-395" transform="translate(-2.000000, -1.000000)" fill="#0A0B09">
            <path d="M49.7256,21.4024 L29.7076,1.3364 C29.4216,1.0484 28.9896,0.9624 28.6176,1.1184 C28.2436,1.2724 27.9996,1.6384 27.9996,2.0424 L27.9996,14.0004 L2.9996,14.0004 C2.4476,14.0004 1.9996,14.4484 1.9996,15.0004 L1.9996,29.0004 C1.9996,29.5524 2.4476,30.0004 2.9996,30.0004 L27.9996,30.0004 L27.9996,42.0004 C27.9996,42.4044 28.2436,42.7684 28.6156,42.9244 C28.7396,42.9764 28.8716,43.0004 28.9996,43.0004 C29.2596,43.0004 29.5136,42.9004 29.7056,42.7104 L49.7236,22.8184 C49.9096,22.6304 50.0176,22.3764 50.0176,22.1104 C50.0176,21.8464 49.9136,21.5904 49.7256,21.4024"></path>
        </g>
    </g>
</svg>