<?xml version="1.0" encoding="UTF-8" standalone="no"?>
<svg width="49px" height="43px" viewBox="0 0 49 43" version="1.1" xmlns="http://www.w3.org/2000/svg" xmlns:xlink="http://www.w3.org/1999/xlink">
    <!-- Generator: Sketch 3.8.3 (29802) - http://www.bohemiancoding.com/sketch -->
    <title>Fill 393</title>
    <desc>Created with Sketch.</desc>
    <defs></defs>
    <g id="Page-1" stroke="none" stroke-width="1" fill="none" fill-rule="evenodd">
        <g id="Fill-393" transform="translate(-2.000000, -1.000000)" fill="#0A0B09">
            <path d="M49.0088,14.001 L24.0088,14.001 L24.0088,2.293 C24.0088,1.887 23.7648,1.523 23.3908,1.369 C23.0168,1.213 22.5868,1.299 22.3008,1.587 L2.2848,21.653 C2.0968,21.841 1.9908,22.095 1.9928,22.361 C1.9928,22.625 2.0988,22.881 2.2868,23.069 L22.3048,42.959 C22.4948,43.151 22.7508,43.251 23.0088,43.251 C23.1368,43.251 23.2688,43.225 23.3928,43.173 C23.7648,43.019 24.0088,42.655 24.0088,42.251 L24.0088,30.001 L49.0088,30.001 C49.5608,30.001 50.0088,29.553 50.0088,29.001 L50.0088,15.001 C50.0088,14.449 49.5608,14.001 49.0088,14.001"></path>
        </g>
    </g>
</svg>