<?xml version="1.0" encoding="UTF-8" standalone="no"?>
<svg width="25px" height="22px" viewBox="0 0 25 22" version="1.1" xmlns="http://www.w3.org/2000/svg" xmlns:xlink="http://www.w3.org/1999/xlink">
    <!-- Generator: Sketch 3.8.3 (29802) - http://www.bohemiancoding.com/sketch -->
    <title>Fill 393</title>
    <desc>Created with Sketch.</desc>
    <defs></defs>
    <g id="Page-1" stroke="none" stroke-width="1" fill="none" fill-rule="evenodd">
        <g id="Fill-393" transform="translate(-1.000000, 0.000000)" fill="#0A0B09">
            <path d="M24.5044,7.0005 L12.0044,7.0005 L12.0044,1.1465 C12.0044,0.9435 11.8824,0.7615 11.6954,0.6845 C11.5084,0.6065 11.2934,0.6495 11.1504,0.7935 L1.1424,10.8265 C1.0484,10.9205 0.9954,11.0475 0.9964,11.1805 C0.9964,11.3125 1.0494,11.4405 1.1434,11.5345 L11.1524,21.4795 C11.2474,21.5755 11.3754,21.6255 11.5044,21.6255 C11.5684,21.6255 11.6344,21.6125 11.6964,21.5865 C11.8824,21.5095 12.0044,21.3275 12.0044,21.1255 L12.0044,15.0005 L24.5044,15.0005 C24.7804,15.0005 25.0044,14.7765 25.0044,14.5005 L25.0044,7.5005 C25.0044,7.2245 24.7804,7.0005 24.5044,7.0005"></path>
        </g>
    </g>
</svg>