<?xml version="1.0" encoding="UTF-8" standalone="no"?>
<svg width="24px" height="22px" viewBox="0 0 24 22" version="1.1" xmlns="http://www.w3.org/2000/svg" xmlns:xlink="http://www.w3.org/1999/xlink">
    <!-- Generator: Sketch 3.8.3 (29802) - http://www.bohemiancoding.com/sketch -->
    <title>Fill 395</title>
    <desc>Created with Sketch.</desc>
    <defs></defs>
    <g id="Page-1" stroke="none" stroke-width="1" fill="none" fill-rule="evenodd">
        <g id="Fill-395" transform="translate(-1.000000, 0.000000)" fill="#0A0B09">
            <path d="M24.8628,10.7012 L14.8538,0.6682 C14.7108,0.5242 14.4948,0.4812 14.3088,0.5592 C14.1218,0.6362 13.9998,0.8192 13.9998,1.0212 L13.9998,7.0002 L1.4998,7.0002 C1.2238,7.0002 0.9998,7.2242 0.9998,7.5002 L0.9998,14.5002 C0.9998,14.7762 1.2238,15.0002 1.4998,15.0002 L13.9998,15.0002 L13.9998,21.0002 C13.9998,21.2022 14.1218,21.3842 14.3078,21.4622 C14.3698,21.4882 14.4358,21.5002 14.4998,21.5002 C14.6298,21.5002 14.7568,21.4502 14.8528,21.3552 L24.8618,11.4092 C24.9548,11.3152 25.0088,11.1882 25.0088,11.0552 C25.0088,10.9232 24.9568,10.7952 24.8628,10.7012"></path>
        </g>
    </g>
</svg>